<?xml version="1.0" standalone="no"?>
<!DOCTYPE svg PUBLIC "-//W3C//DTD SVG 20010904//EN"
 "http://www.w3.org/TR/2001/REC-SVG-20010904/DTD/svg10.dtd">
<svg version="1.0" xmlns="http://www.w3.org/2000/svg"
 width="100.000000pt" height="132.000000pt" viewBox="0 0 100.000000 132.000000"
 preserveAspectRatio="xMidYMid meet">
<metadata>
Created by potrace 1.14, written by Peter Selinger 2001-2017
</metadata>
<g transform="translate(0.000000,132.000000) scale(0.100000,-0.100000)"
fill="#000000" stroke="none">
<path d="M778 1069 c-3 -8 -1 -22 4 -31 8 -16 -10 -17 -274 -18 -156 0 -291 0
-300 0 -17 0 -18 -22 -18 -322 0 -323 4 -382 22 -356 6 9 7 6 3 -10 -7 -25 27
-93 63 -125 29 -27 22 -2 -16 57 -37 58 -39 78 -12 113 18 23 20 41 20 149 l0
124 70 0 70 0 0 -130 c0 -121 2 -131 25 -166 21 -31 25 -48 25 -108 0 -42 -6
-82 -14 -98 l-15 -28 65 0 c45 0 63 3 58 11 -4 7 0 9 14 5 22 -7 74 12 66 25
-3 5 2 6 11 3 21 -8 109 81 101 102 -3 8 -2 13 3 10 11 -7 23 22 14 36 -4 7
-1 8 7 3 10 -6 11 -1 6 21 -5 23 -4 26 5 14 8 -12 9 -7 5 19 -3 18 -6 46 -6
62 0 26 -3 28 -33 27 -19 -1 -47 7 -64 17 -28 17 -31 23 -37 93 -9 115 -8 182
5 182 8 0 8 4 -1 15 -9 11 -15 12 -25 2 -8 -7 -9 -14 -3 -18 14 -9 3 -256 -12
-274 -7 -8 -36 -21 -65 -30 -29 -8 -55 -20 -57 -27 -2 -6 -5 44 -6 111 -2 91
1 121 9 115 8 -5 9 -3 4 6 -9 15 -12 42 -14 108 l-1 42 -135 0 -135 0 -3 -217
c-2 -179 -3 -160 -5 105 l-2 322 295 0 294 0 4 -142 3 -143 -1 155 c0 143 2
156 20 173 19 18 19 18 1 12 -11 -3 -23 -1 -26 6 -6 8 -9 7 -12 -2z"/>
<path d="M210 910 l0 -90 58 -1 c31 0 151 -1 267 -3 116 -1 218 0 228 2 15 4
17 17 17 93 l0 89 -285 0 -285 0 0 -90z"/>
<path d="M116 823 c-3 -3 -6 -14 -6 -24 0 -13 -6 -16 -22 -11 -21 5 -21 4 -5
-19 14 -20 17 -52 17 -204 0 -201 13 -290 54 -359 30 -51 122 -136 148 -136 9
0 19 -4 23 -9 11 -20 156 -44 219 -37 75 8 193 63 235 111 39 45 81 118 88
152 3 16 8 125 12 243 4 143 10 222 19 237 17 30 15 35 -8 28 -16 -5 -20 -2
-20 14 0 29 -16 26 -37 -6 -16 -23 -18 -56 -21 -238 -2 -115 -8 -214 -13 -219
-5 -6 -9 -21 -9 -33 0 -34 -88 -163 -110 -163 -5 0 -25 -11 -45 -24 -55 -38
-133 -52 -200 -37 -30 7 -68 22 -83 34 -15 12 -36 27 -47 33 -37 20 -97 103
-108 146 -5 24 -13 135 -16 248 -5 168 -9 211 -23 237 -20 35 -32 46 -42 36z"/>
<path d="M327 417 c-13 -9 -16 -36 -18 -127 -2 -102 -1 -115 14 -114 9 1 15
-2 12 -6 -2 -4 13 -15 34 -25 30 -13 43 -15 57 -6 17 9 17 11 -6 12 -14 1 -29
2 -35 2 -6 0 -9 47 -7 128 3 117 2 129 -16 138 -14 7 -24 7 -35 -2z"/>
</g>
</svg>
